<svg xmlns="http://www.w3.org/2000/svg" xmlns:xlink="http://www.w3.org/1999/xlink" width="132" height="33" viewBox="0 0 132 33">
  <defs>
    <linearGradient id="logo-c" x1="94.685%" x2="2.641%" y1="-39.352%" y2="135.731%">
      <stop offset="0%" stop-color="#F05746"/>
      <stop offset="100%" stop-color="#EC1233"/>
    </linearGradient>
    <path id="logo-b" d="M116.254799,7.36757805 L116.237643,7.38488062 C116.23621,7.37780325 116.234769,7.37063917 116.233322,7.36338924 C116.211838,7.35917409 116.190992,7.35500831 116.170803,7.35090326 L116.221036,7.30064341 C115.984593,6.06937493 115.605746,2.71816176 117.139985,0.793273042 C118.276267,-0.39593451 120.14779,-0.192070358 120.715931,1.03111455 C121.141239,1.94678459 120.761224,2.69108814 120.543268,3.00745702 C120.854448,2.78586609 121.586543,2.39951482 122.487194,2.83191456 C123.690316,3.40952966 123.857417,5.3462391 122.687715,6.46749193 C120.761194,7.99457212 117.494734,7.60796746 116.254799,7.36757805 Z"/>
    <filter id="logo-a" width="287.1%" height="284.3%" x="-93.6%" y="-65.8%" filterUnits="objectBoundingBox">
      <feOffset dy="2" in="SourceAlpha" result="shadowOffsetOuter1"/>
      <feGaussianBlur in="shadowOffsetOuter1" result="shadowBlurOuter1" stdDeviation="2"/>
      <feColorMatrix in="shadowBlurOuter1" values="0 0 0 0 0.226589073   0 0 0 0 0.226589073   0 0 0 0 0.226589073  0 0 0 0.5 0"/>
    </filter>
    <path id="logo-e" d="M122.81129,15.3979537 C123.048383,14.6471413 123.813362,12.5442914 125.3028,11.8743903 C126.300845,11.5377244 127.332158,12.2447228 127.298889,13.1200542 C127.270236,13.8739589 126.698659,14.1783327 126.540631,14.2482708 C126.749302,14.2100404 127.356914,14.158393 127.764643,14.7360505 C128.296934,15.4430489 127.83118,16.5877129 126.799867,16.8907123 C125.202996,17.1937116 123.373248,15.9143811 122.774421,15.4093823 L122.81129,15.3979537 Z"/>
    <filter id="logo-d" width="368.6%" height="372%" x="-134.3%" y="-97.1%" filterUnits="objectBoundingBox">
      <feOffset dy="2" in="SourceAlpha" result="shadowOffsetOuter1"/>
      <feGaussianBlur in="shadowOffsetOuter1" result="shadowBlurOuter1" stdDeviation="2"/>
      <feColorMatrix in="shadowBlurOuter1" values="0 0 0 0 0.226589073   0 0 0 0 0.226589073   0 0 0 0 0.226589073  0 0 0 0.5 0"/>
    </filter>
  </defs>
  <g fill="none" fill-rule="evenodd" transform="translate(-1 2)">
    <path fill="#FFF" d="M2.9453125,4.81640625 C3.28385586,4.47786289 3.60546723,4.30859375 3.91015625,4.30859375 C4.31640828,4.30859375 4.68880039,4.6132782 5.02734375,5.22265625 C5.12890676,5.39192793 5.21354133,6.05207758 5.28125,7.203125 C5.31510434,8.35417242 5.31510434,9.80988703 5.28125,11.5703125 C5.28125,13.2968836 5.26432309,14.9726481 5.23046875,16.5976562 C5.19661441,18.2226644 5.16276059,19.9153558 5.12890625,21.6757812 C5.09505191,23.4362067 5.078125,24.57031 5.078125,25.078125 L8.68359375,25.078125 C13.8971615,25.1119793 16.8932253,25.772129 17.671875,27.0585938 C17.773438,27.2278654 17.8411457,27.4140615 17.875,27.6171875 C17.875,27.8541679 17.7903654,28.0911446 17.6210938,28.328125 C17.3841134,28.734377 16.8593791,28.9544269 16.046875,28.9882812 L15.8945312,28.9882812 C14.9466098,28.9882812 12.3906458,28.835939 8.2265625,28.53125 C4.40102254,28.2942696 2.33593902,28.023439 2.03125,27.71875 C1.72656098,27.3802066 1.57421875,26.6692762 1.57421875,25.5859375 C1.57421875,24.4687444 1.74348789,20.9818001 2.08203125,15.125 C2.45442895,8.55725883 2.74218648,5.12109527 2.9453125,4.81640625 Z M22.2421875,12.3828125 C21.6328095,12.3828125 21.2604173,12.2643241 21.125,12.0273438 C20.9895827,11.7903634 20.9049481,10.9947984 20.8710938,9.640625 C20.8372394,9.23437297 20.8203125,8.86198086 20.8203125,8.5234375 C20.8203125,7.44009875 20.9388009,6.5429723 21.1757812,5.83203125 C21.4127616,5.25650754 21.7174461,4.90104234 22.0898438,4.765625 L22.34375,4.765625 C22.6145847,4.765625 22.9023422,4.91796723 23.2070312,5.22265625 C23.5117203,5.59505395 23.7317702,6.37369199 23.8671875,7.55859375 C23.9010418,8.06640879 23.9179688,8.54036238 23.9179688,8.98046875 C23.9179688,9.5898468 23.867188,10.1822888 23.765625,10.7578125 C23.5963533,11.5026079 23.4440111,11.9596346 23.3085938,12.1289062 C23.1731764,12.2981779 22.8177112,12.3828125 22.2421875,12.3828125 Z M35.9023438,24.265625 C35.9023438,23.3854123 35.7669284,22.640628 35.4960938,22.03125 C35.2252591,21.3203089 34.8190131,20.9648438 34.2773438,20.9648438 C33.6679657,20.9648438 32.8893277,21.3880166 31.9414063,22.234375 C31.3658825,22.7760444 30.9765635,23.2161441 30.7734375,23.5546875 C30.6380202,23.8255222 30.5703125,24.1640605 30.5703125,24.5703125 L30.5703125,24.7734375 C30.6380212,25.7213589 30.9427056,26.3138009 31.484375,26.5507812 C31.6536467,26.6184899 31.8567696,26.6523438 32.09375,26.6523438 C32.5677107,26.6523438 33.1940065,26.5000015 33.9726562,26.1953125 C34.7851603,25.8906235 35.3098946,25.6197929 35.546875,25.3828125 C35.7838554,25.1458321 35.9023438,24.77344 35.9023438,24.265625 Z M37.4257812,28.6328125 C37.2226552,28.8359385 36.477871,29.1236961 35.1914062,29.4960938 C33.9049415,29.9023458 32.9062536,30.1054688 32.1953125,30.1054688 C30.7395761,30.1054688 29.5377652,29.5976613 28.5898438,28.5820312 C27.6419223,27.6002555 27.1679688,26.3645908 27.1679688,24.875 C27.1679688,23.2161375 27.8619722,21.6588614 29.25,20.203125 C30.6718821,18.7473886 32.1953044,18.0195312 33.8203125,18.0195312 C34.2942732,18.0195312 34.6158846,17.9856774 34.7851562,17.9179688 C34.9544279,17.8502601 35.0052087,17.7148448 34.9375,17.5117188 C34.8697913,17.3085927 34.6835953,16.9531275 34.3789062,16.4453125 C33.9387999,15.8359345 33.329431,15.53125 32.5507812,15.53125 C31.8059859,15.5651043 31.1119824,15.9036426 30.46875,16.546875 C29.4192656,17.7317768 28.6575545,17.9348997 28.1835938,17.15625 C27.9466134,16.7838523 27.9296865,16.2929718 28.1328125,15.6835938 C28.3020842,15.0742157 28.6914032,14.4648468 29.3007812,13.8554688 C29.8085963,13.3476537 30.3841114,13.0260423 31.0273438,12.890625 C31.4674501,12.789062 31.9921845,12.7382812 32.6015625,12.7382812 L33.4648438,12.7382812 C35.2252692,12.9075529 36.5286416,13.6184833 37.375,14.8710938 C38.1875041,16.0898498 38.8137999,18.019518 39.2539062,20.6601562 C39.5247409,22.0820384 39.6601562,23.2161416 39.6601562,24.0625 C39.6601562,24.164063 39.6432293,24.2656245 39.609375,24.3671875 C39.5755207,25.2135459 39.321617,26.0429647 38.8476562,26.8554688 C38.4414042,27.6341185 37.9674506,28.2265605 37.4257812,28.6328125 Z M48.34375,12.6367188 C49.1223997,12.6367188 49.7148417,12.7213533 50.1210938,12.890625 C50.5273458,13.093751 51.0520801,13.5507777 51.6953125,14.2617188 C52.0338559,14.6341164 52.5585902,15.1757777 53.2695313,15.8867188 C53.3710943,15.7174471 53.5911441,15.3958357 53.9296875,14.921875 C54.3020852,14.3463513 54.9114541,13.9062515 55.7578125,13.6015625 C56.6380252,13.2968735 57.4505171,13.2122389 58.1953125,13.3476562 C58.9739622,13.5169279 59.8880156,14.1093699 60.9375,15.125 C62.0208388,16.1406301 62.7317691,17.1223911 63.0703125,18.0703125 C63.5104189,19.1197969 63.9166648,20.7617076 64.2890625,22.9960938 C64.5937515,24.6888105 64.7460938,25.8567676 64.7460938,26.5 C64.7460938,26.7369804 64.7291668,26.9062495 64.6953125,27.0078125 C64.5937495,27.4140645 64.2552112,27.7018221 63.6796875,27.8710938 C62.2916597,28.2773458 61.3268256,26.9739734 60.7851563,23.9609375 C60.4127586,21.7265513 60.1419279,20.3554713 59.9726563,19.8476562 C59.7018216,19.0351522 59.227868,18.3072949 58.5507813,17.6640625 C57.8736945,16.9869758 57.3489602,16.7330721 56.9765625,16.9023438 C56.5026018,17.0716154 56.1302097,17.7994727 55.859375,19.0859375 C55.554686,20.3724023 55.4023438,21.9296784 55.4023438,23.7578125 C55.4023438,25.518238 55.2838554,26.6692681 55.046875,27.2109375 C54.7760403,27.7526069 54.251306,28.0234375 53.4726563,28.0234375 C52.8971325,28.0234375 52.4570328,27.7695338 52.1523438,27.2617188 C51.8815091,26.7539037 51.6614592,25.8229234 51.4921875,24.46875 C51.2552071,22.9114505 50.8489612,21.2356861 50.2734375,19.4414062 C49.7317681,17.6809808 49.2916684,16.648439 48.953125,16.34375 C48.0729123,15.6328089 47.2604204,16.1913971 46.515625,18.0195312 C45.9401013,19.4414134 45.5846361,21.3203008 45.4492188,23.65625 C45.3138014,25.3828211 45.195313,26.4492167 45.09375,26.8554688 C44.992187,27.2278664 44.7382833,27.4309894 44.3320313,27.4648438 C43.7226532,27.5664068 43.2656265,27.312503 42.9609375,26.703125 C42.6562485,26.1276013 42.4361986,25.010425 42.3007813,23.3515625 C42.2330726,22.7760388 42.1992188,22.2343775 42.1992188,21.7265625 C42.1992188,18.7135266 43.130199,16.2252702 44.9921875,14.2617188 C45.6692742,13.5507777 46.2109355,13.093751 46.6171875,12.890625 C46.9895852,12.7213533 47.5651003,12.6367188 48.34375,12.6367188 Z M74.6484375,23.859375 C75.9010479,23.859375 76.865882,23.6223982 77.5429688,23.1484375 C78.2200555,22.7083311 78.6770821,21.9635469 78.9140625,20.9140625 C79.0494798,20.4062475 79.1171875,19.8815131 79.1171875,19.3398438 C79.1171875,18.7981744 79.0494798,18.2565131 78.9140625,17.7148438 C78.6432278,16.5976507 78.1692742,15.8020857 77.4921875,15.328125 C76.8828095,14.8880186 76.2395867,14.6679688 75.5625,14.6679688 C75.3932283,14.6679688 75.2239592,14.6848957 75.0546875,14.71875 C74.1406204,14.8541673 73.4127631,15.2942671 72.8710938,16.0390625 C71.7200463,17.5625076 71.1445313,19.0012953 71.1445313,20.3554688 C71.1445313,20.6601578 71.1614582,20.9648422 71.1953125,21.2695312 C71.3645842,22.2174527 71.7031225,22.8945292 72.2109375,23.3007812 C72.7187525,23.6731789 73.5312444,23.859375 74.6484375,23.859375 Z M72.2617188,12.5859375 C73.0065141,12.0104138 73.615883,11.6718755 74.0898438,11.5703125 C74.2591154,11.5364582 74.4960922,11.5195312 74.8007813,11.5195312 C75.1731789,11.5195312 75.6302056,11.5533851 76.171875,11.6210938 C78.3385525,11.8919284 80.014317,12.8906164 81.1992188,14.6171875 C82.0455771,15.8697979 82.46875,17.3932202 82.46875,19.1875 C82.46875,19.4583347 82.4518231,19.7460922 82.4179688,20.0507812 C82.2486971,22.2513131 81.5716205,23.9778583 80.3867188,25.2304688 C79.506506,26.1445358 78.3385489,26.7877586 76.8828125,27.1601563 C76.1380171,27.3294279 75.3932329,27.4140625 74.6484375,27.4140625 C73.9713508,27.4140625 73.3112011,27.3294279 72.6679688,27.1601563 C70.6367086,26.6184869 69.1979209,25.4336029 68.3515625,23.6054688 C67.9453105,22.623693 67.7252606,21.6080782 67.6914063,20.5585938 C67.6914063,19.6445267 67.8606754,18.6966195 68.1992188,17.7148438 C68.9101598,15.5820206 70.2643129,13.8724023 72.2617188,12.5859375 Z M86.1757813,18.5273438 C86.1757813,16.5299379 86.2434889,15.1250041 86.3789063,14.3125 C86.5481779,13.5338503 86.8359355,13.0598967 87.2421875,12.890625 C87.5468765,12.789062 87.8177071,12.789062 88.0546875,12.890625 C88.2578135,13.0260423 88.4270827,13.296873 88.5625,13.703125 C88.7317717,14.109377 88.867187,14.6679652 88.96875,15.3789062 C89.0364587,16.0898473 89.1041663,17.0039007 89.171875,18.1210938 C89.4427097,23.7409135 90.3398361,26.5507812 91.8632813,26.5507812 C92.2356789,26.5507812 92.6419249,26.4153659 93.0820313,26.1445312 C93.759118,25.7382792 94.3854138,25.0781296 94.9609375,24.1640625 C95.3333352,23.5885388 95.5533851,22.9114622 95.6210938,22.1328125 C95.6888024,21.3880171 95.6888024,19.9153756 95.6210938,17.7148438 C95.5195307,14.3294102 95.6041653,12.4843765 95.875,12.1796875 C96.1458347,11.9427071 96.4166653,11.8242188 96.6875,11.8242188 C97.093752,11.8242188 97.5338518,12.0950494 98.0078125,12.6367188 C98.5833362,13.2460968 98.9218745,15.0403497 99.0234375,18.0195312 C99.0572918,18.6289093 99.0742188,19.2044244 99.0742188,19.7460938 C99.0742188,21.8450626 98.8710958,23.4023387 98.4648438,24.4179688 C97.7200484,26.3476659 96.5859451,27.8203074 95.0625,28.8359375 C94.0468699,29.4791699 93.0143282,29.8007812 91.9648438,29.8007812 C91.490883,29.8007812 91.0000025,29.7161467 90.4921875,29.546875 C89.0025967,29.0729143 87.9023473,27.955738 87.1914063,26.1953125 C86.5143195,24.434887 86.1757813,21.878923 86.1757813,18.5273438 Z M114.5625,15.2265625 C114.5625,16.3099012 113.479178,16.4960973 111.3125,15.7851562 C109.247386,15.1080695 107.774744,15.3450463 106.894531,16.4960938 C106.048173,17.6809955 105.658854,20.0338366 105.726562,23.5546875 C105.794271,26.5000147 105.69271,28.0572908 105.421875,28.2265625 C105.252603,28.3281255 105.032553,28.3789062 104.761719,28.3789062 C104.524738,28.3789062 104.253908,28.3281255 103.949219,28.2265625 C103.305986,28.0572908 102.916667,27.7864602 102.78125,27.4140625 C102.611978,26.9401018 102.442709,24.53648 102.273438,20.203125 C102.171874,18.0025932 102.121094,16.3945363 102.121094,15.3789062 L102.121094,14.515625 C102.188802,13.7708296 102.374998,13.3307298 102.679688,13.1953125 C103.119794,13.0260408 103.610674,13.1614561 104.152344,13.6015625 C104.626304,14.0078145 104.98177,14.0924491 105.21875,13.8554688 C105.489585,13.5846341 106.048173,13.2630227 106.894531,12.890625 C107.673181,12.484373 108.5026,12.28125 109.382812,12.28125 C110.093754,12.28125 110.855465,12.4166653 111.667969,12.6875 C113.597666,13.3307324 114.5625,14.1770781 114.5625,15.2265625 Z"/>
    <g fill-rule="nonzero">
      <use fill="#000" filter="url(#logo-a)" xlink:href="#logo-b"/>
      <use fill="url(#logo-c)" fill-rule="evenodd" xlink:href="#logo-b"/>
    </g>
    <g fill-rule="nonzero" transform="rotate(-22 125.38 14.363)">
      <use fill="#000" filter="url(#logo-d)" xlink:href="#logo-e"/>
      <use fill="url(#logo-c)" fill-rule="evenodd" xlink:href="#logo-e"/>
    </g>
  </g>
</svg>
